# xmcd
#
# Track frame offsets:
# 150
# 15675
# 41522
#
# Disc length: 764 seconds
#
#
# Revision: 3
# Processed by: cddbd v1.4PL0 Copyright (c) Steve Scherf et al.
# Submitted via: FreeRIP 2.00 
#
DISCID=1a02fa03
DTITLE=Jason Donovan - Every day (I love you more)
DYEAR=1900
DGENRE=
TTITLE0=Every day (I love you more) 7" version
TTITLE1=Every day (I love you more) 12" version
TTITLE2=I guess she never loved me
EXTD=
EXTT0=
EXTT1=
EXTT2=
PLAYORDER=
